<svg xmlns="http://www.w3.org/2000/svg" viewBox="0 0 128 128">
  <defs>
    <linearGradient id="g" x1="0%" y1="0%" x2="100%" y2="100%">
      <stop offset="0%" stop-color="#1d4ed8" />
      <stop offset="100%" stop-color="#38bdf8" />
    </linearGradient>
  </defs>
  <rect width="128" height="128" rx="32" fill="#071122" />
  <path
    d="M28 42c0-7.732 6.268-14 14-14h8.461c5.536 0 10.597 3.125 13.078 8.072L64 37l0.461-0.928C66.942 31.125 72.003 28 77.539 28H86c7.732 0 14 6.268 14 14v44c0 7.732-6.268 14-14 14h-8.461c-5.536 0-10.597-3.125-13.078-8.072L64 91l-0.461 0.928C61.058 96.875 55.997 100 50.461 100H42c-7.732 0-14-6.268-14-14V42Z"
    fill="url(#g)"
  />
  <path
    d="M47 46h11l6 13 11-23h11L69 86H58L47 64l-5 10H31l16-28Z"
    fill="#fff"
  />
</svg>

