<svg xmlns="http://www.w3.org/2000/svg" viewBox="0 0 512 512">
  <rect width="512" height="512" rx="128" fill="#071122" />
  <rect x="72" y="72" width="368" height="368" rx="92" fill="#0f172a" />
  <path
    d="M108 170c0-32.033 25.967-58 58-58h35.457c22.944 0 44.086 12.709 54.973 33.061L256 147l-0.43-1.939C266.457 124.709 287.599 112 310.543 112H346c32.033 0 58 25.967 58 58v172c0 32.033-25.967 58-58 58h-35.457c-22.944 0-44.086-12.709-54.973-33.061L256 365l0.43 1.939C266.457 387.291 287.599 400 310.543 400H346c32.033 0 58-25.967 58-58V170"
    fill="#1d4ed8"
  />
  <path
    d="M194 182h44l28 62 45-94h45L294 370h-43l-57-116-21 42h-43l64-114Z"
    fill="#fff"
  />
</svg>
