<svg xmlns="http://www.w3.org/2000/svg" viewBox="0 0 192 192">
  <rect width="192" height="192" rx="48" fill="#071122" />
  <circle cx="96" cy="96" r="72" fill="#0f172a" />
  <path
    d="M42 64c0-12.15 9.85-22 22-22h13.296c8.698 0 16.681 4.88 20.572 12.58L96 58l-1.868-3.42C90.241 46.88 82.258 42 73.56 42H64c-12.15 0-22 9.85-22 22v64c0 12.15 9.85 22 22 22h9.56c8.698 0 16.681-4.88 20.572-12.58L96 134l1.868 3.42c3.891 7.7 11.874 12.58 20.572 12.58H128c12.15 0 22-9.85 22-22V64c0-12.15-9.85-22-22-22h-9.56c-8.698 0-16.681 4.88-20.572 12.58L96 58l-1.868-3.42"
    fill="#1d4ed8"
  />
  <path d="M73 68h16l10 22 17-36h16L108 138H92L73 98l-8 15H49l24-45Z" fill="#fff" />
</svg>

